# xmcd CD database file
#
# Track frame offsets:
#	150
#	14332
#	28459
#	40942
#	51698
#	64571
#	79116
#	91571
#	104584
#	116955
#	129382
#	141615
#	152900
#	167055
#	179036
#	191965
#	204364
#	217711
#
# Disc length: 3073 seconds
#
# Revision: 1
# Processed by: cddbd v1.5.1PL2 Copyright (c) Steve Scherf et al.
# Submitted via: CDex 1.51
#
DISCID=0f0bff12
DTITLE=The Andrews Sisters - 10 Jazz Legends Vol 1 CD 9
DYEAR=1900
DGENRE=Jazz
TTITLE0=Rum and Coca Cola
TTITLE1=Bei mir bist du shoen
TTITLE2=Joseph, Joseph
TTITLE3=Pagan love song
TTITLE4=A Jitterburg lullaby
TTITLE5=Hold tight, hold tight
TTITLE6=Begin the beguine
TTITLE7=Berr barrel Polka
TTITLE8=The jumpin' jive
TTITLE9=Oh ! Johnny
TTITLE10=South American way
TTITLE11=Say "si, si"
TTITLE12=Tuxedo Junction
TTITLE13=Rhumboogie
TTITLE14=Beat me daddy, eight to the bar
TTITLE15=Boogie woogie bugle boy
TTITLE16=Son't sit under the apple tree
TTITLE17=Shoo, Shoo baby
EXTD=
EXTT0=
EXTT1=
EXTT2=
EXTT3=
EXTT4=
EXTT5=
EXTT6=
EXTT7=
EXTT8=
EXTT9=
EXTT10=
EXTT11=
EXTT12=
EXTT13=
EXTT14=
EXTT15=
EXTT16=
EXTT17=
PLAYORDER=
